<svg width="248" height="58" viewBox="0 0 248 58" fill="none" xmlns="http://www.w3.org/2000/svg">
<path d="M70.942 42.672V48H50.614V13.296H57.07V42.672H70.942ZM89.2139 32.856C89.2139 32.088 89.1019 31.368 88.8779 30.696C88.6699 30.008 88.3499 29.408 87.9179 28.896C87.4859 28.384 86.9339 27.984 86.2619 27.696C85.6059 27.392 84.8379 27.24 83.9579 27.24C82.2459 27.24 80.8939 27.728 79.9019 28.704C78.9259 29.68 78.3019 31.064 78.0299 32.856H89.2139ZM77.9099 36.432C78.0059 37.696 78.2299 38.792 78.5819 39.72C78.9339 40.632 79.3979 41.392 79.9739 42C80.5499 42.592 81.2299 43.04 82.0139 43.344C82.8139 43.632 83.6939 43.776 84.6539 43.776C85.6139 43.776 86.4379 43.664 87.1259 43.44C87.8299 43.216 88.4379 42.968 88.9499 42.696C89.4779 42.424 89.9339 42.176 90.3179 41.952C90.7179 41.728 91.1019 41.616 91.4699 41.616C91.9659 41.616 92.3339 41.8 92.5739 42.168L94.2779 44.328C93.6219 45.096 92.8859 45.744 92.0699 46.272C91.2539 46.784 90.3979 47.2 89.5019 47.52C88.6219 47.824 87.7179 48.04 86.7899 48.168C85.8779 48.296 84.9899 48.36 84.1259 48.36C82.4139 48.36 80.8219 48.08 79.3499 47.52C77.8779 46.944 76.5979 46.104 75.5099 45C74.4219 43.88 73.5659 42.504 72.9419 40.872C72.3179 39.224 72.0059 37.32 72.0059 35.16C72.0059 33.48 72.2779 31.904 72.8219 30.432C73.3659 28.944 74.1419 27.656 75.1499 26.568C76.1739 25.464 77.4139 24.592 78.8699 23.952C80.3419 23.312 81.9979 22.992 83.8379 22.992C85.3899 22.992 86.8219 23.24 88.1339 23.736C89.4459 24.232 90.5739 24.96 91.5179 25.92C92.4619 26.864 93.1979 28.032 93.7259 29.424C94.2699 30.8 94.5419 32.376 94.5419 34.152C94.5419 35.048 94.4459 35.656 94.2539 35.976C94.0619 36.28 93.6939 36.432 93.1499 36.432H77.9099ZM105.135 23.376V48H99.1825V23.376H105.135ZM105.951 16.2C105.951 16.712 105.847 17.192 105.639 17.64C105.431 18.088 105.151 18.48 104.799 18.816C104.463 19.152 104.063 19.424 103.599 19.632C103.135 19.824 102.639 19.92 102.111 19.92C101.599 19.92 101.111 19.824 100.647 19.632C100.199 19.424 99.8065 19.152 99.4705 18.816C99.1345 18.48 98.8625 18.088 98.6545 17.64C98.4625 17.192 98.3665 16.712 98.3665 16.2C98.3665 15.672 98.4625 15.176 98.6545 14.712C98.8625 14.248 99.1345 13.848 99.4705 13.512C99.8065 13.176 100.199 12.912 100.647 12.72C101.111 12.512 101.599 12.408 102.111 12.408C102.639 12.408 103.135 12.512 103.599 12.72C104.063 12.912 104.463 13.176 104.799 13.512C105.151 13.848 105.431 14.248 105.639 14.712C105.847 15.176 105.951 15.672 105.951 16.2Z" fill="black"/>
<path d="M137.519 23.376L127.751 48H122.375L112.607 23.376H117.503C117.951 23.376 118.319 23.48 118.607 23.688C118.911 23.896 119.111 24.16 119.207 24.48L123.959 37.632C124.215 38.4 124.439 39.152 124.631 39.888C124.823 40.624 124.991 41.36 125.135 42.096C125.295 41.36 125.471 40.624 125.663 39.888C125.855 39.152 126.087 38.4 126.359 37.632L131.207 24.48C131.319 24.16 131.519 23.896 131.807 23.688C132.095 23.48 132.439 23.376 132.839 23.376H137.519ZM153.077 37.488C151.365 37.568 149.925 37.72 148.757 37.944C147.589 38.152 146.653 38.424 145.949 38.76C145.245 39.096 144.741 39.488 144.437 39.936C144.133 40.384 143.981 40.872 143.981 41.4C143.981 42.44 144.285 43.184 144.893 43.632C145.517 44.08 146.325 44.304 147.317 44.304C148.533 44.304 149.581 44.088 150.461 43.656C151.357 43.208 152.229 42.536 153.077 41.64V37.488ZM139.493 26.808C142.325 24.216 145.733 22.92 149.717 22.92C151.157 22.92 152.445 23.16 153.581 23.64C154.717 24.104 155.677 24.76 156.461 25.608C157.245 26.44 157.837 27.44 158.237 28.608C158.653 29.776 158.861 31.056 158.861 32.448V48H156.173C155.613 48 155.181 47.92 154.877 47.76C154.573 47.584 154.333 47.24 154.157 46.728L153.629 44.952C153.005 45.512 152.397 46.008 151.805 46.44C151.213 46.856 150.597 47.208 149.957 47.496C149.317 47.784 148.629 48 147.893 48.144C147.173 48.304 146.373 48.384 145.493 48.384C144.453 48.384 143.493 48.248 142.613 47.976C141.733 47.688 140.973 47.264 140.333 46.704C139.693 46.144 139.197 45.448 138.845 44.616C138.493 43.784 138.317 42.816 138.317 41.712C138.317 41.088 138.421 40.472 138.629 39.864C138.837 39.24 139.173 38.648 139.637 38.088C140.117 37.528 140.733 37 141.485 36.504C142.237 36.008 143.157 35.576 144.245 35.208C145.349 34.84 146.629 34.544 148.085 34.32C149.541 34.08 151.205 33.936 153.077 33.888V32.448C153.077 30.8 152.725 29.584 152.021 28.8C151.317 28 150.301 27.6 148.973 27.6C148.013 27.6 147.213 27.712 146.573 27.936C145.949 28.16 145.397 28.416 144.917 28.704C144.437 28.976 143.997 29.224 143.597 29.448C143.213 29.672 142.781 29.784 142.301 29.784C141.885 29.784 141.533 29.68 141.245 29.472C140.957 29.248 140.725 28.992 140.549 28.704L139.493 26.808ZM179.468 28.176C179.308 28.432 179.14 28.616 178.964 28.728C178.788 28.824 178.564 28.872 178.292 28.872C178.004 28.872 177.692 28.792 177.356 28.632C177.036 28.472 176.66 28.296 176.228 28.104C175.796 27.896 175.3 27.712 174.74 27.552C174.196 27.392 173.548 27.312 172.796 27.312C171.628 27.312 170.708 27.56 170.036 28.056C169.38 28.552 169.052 29.2 169.052 30C169.052 30.528 169.22 30.976 169.556 31.344C169.908 31.696 170.364 32.008 170.924 32.28C171.5 32.552 172.148 32.8 172.868 33.024C173.588 33.232 174.316 33.464 175.052 33.72C175.804 33.976 176.54 34.272 177.26 34.608C177.98 34.928 178.62 35.344 179.18 35.856C179.756 36.352 180.212 36.952 180.548 37.656C180.9 38.36 181.076 39.208 181.076 40.2C181.076 41.384 180.86 42.48 180.428 43.488C180.012 44.48 179.388 45.344 178.556 46.08C177.724 46.8 176.692 47.368 175.46 47.784C174.244 48.184 172.836 48.384 171.236 48.384C170.388 48.384 169.556 48.304 168.74 48.144C167.94 48 167.164 47.792 166.412 47.52C165.676 47.248 164.988 46.928 164.348 46.56C163.724 46.192 163.172 45.792 162.692 45.36L164.06 43.104C164.236 42.832 164.444 42.624 164.684 42.48C164.924 42.336 165.228 42.264 165.596 42.264C165.964 42.264 166.308 42.368 166.628 42.576C166.964 42.784 167.348 43.008 167.78 43.248C168.212 43.488 168.716 43.712 169.292 43.92C169.884 44.128 170.628 44.232 171.524 44.232C172.228 44.232 172.828 44.152 173.324 43.992C173.836 43.816 174.252 43.592 174.572 43.32C174.908 43.048 175.148 42.736 175.292 42.384C175.452 42.016 175.532 41.64 175.532 41.256C175.532 40.68 175.356 40.208 175.004 39.84C174.668 39.472 174.212 39.152 173.636 38.88C173.076 38.608 172.428 38.368 171.692 38.16C170.972 37.936 170.228 37.696 169.46 37.44C168.708 37.184 167.964 36.888 167.228 36.552C166.508 36.2 165.86 35.76 165.284 35.232C164.724 34.704 164.268 34.056 163.916 33.288C163.58 32.52 163.412 31.592 163.412 30.504C163.412 29.496 163.612 28.536 164.012 27.624C164.412 26.712 164.996 25.92 165.764 25.248C166.548 24.56 167.516 24.016 168.668 23.616C169.836 23.2 171.18 22.992 172.7 22.992C174.396 22.992 175.94 23.272 177.332 23.832C178.724 24.392 179.884 25.128 180.812 26.04L179.468 28.176Z" fill="#1E90FF"/>
</svg>
